<svg xmlns="http://www.w3.org/2000/svg" xmlns:xlink="http://www.w3.org/1999/xlink" width="2000" zoomAndPan="magnify" viewBox="0 0 1500 1499.999933" height="2000" preserveAspectRatio="xMidYMid meet" version="1.0"><defs><clipPath id="afbe249301"><path d="M 15.304688 13.914062 L 1486.054688 13.914062 L 1486.054688 1484.664062 L 15.304688 1484.664062 Z M 15.304688 13.914062 " clip-rule="nonzero"/></clipPath><clipPath id="293ca7bd06"><path d="M 539 534 L 961 534 L 961 999.96875 L 539 999.96875 Z M 539 534 " clip-rule="nonzero"/></clipPath><clipPath id="99a41b0bd2"><path d="M 450 432.96875 L 1050 432.96875 L 1050 733 L 450 733 Z M 450 432.96875 " clip-rule="nonzero"/></clipPath></defs><g clip-path="url(#afbe249301)"><path fill="#000000" d="M 1486.054688 749.289062 C 1486.054688 761.324219 1485.761719 773.351562 1485.167969 785.371094 C 1484.578125 797.394531 1483.695312 809.390625 1482.515625 821.367188 C 1481.335938 833.347656 1479.863281 845.285156 1478.09375 857.191406 C 1476.328125 869.097656 1474.273438 880.949219 1471.925781 892.753906 C 1469.578125 904.558594 1466.941406 916.296875 1464.015625 927.972656 C 1461.09375 939.644531 1457.882812 951.242188 1454.390625 962.757812 C 1450.898438 974.273438 1447.121094 985.699219 1443.066406 997.03125 C 1439.015625 1008.359375 1434.683594 1019.585938 1430.078125 1030.707031 C 1425.472656 1041.824219 1420.597656 1052.824219 1415.453125 1063.703125 C 1410.304688 1074.582031 1404.898438 1085.328125 1399.222656 1095.941406 C 1393.550781 1106.558594 1387.621094 1117.023438 1381.433594 1127.347656 C 1375.246094 1137.671875 1368.808594 1147.835938 1362.121094 1157.84375 C 1355.4375 1167.847656 1348.507812 1177.683594 1341.339844 1187.351562 C 1334.167969 1197.019531 1326.769531 1206.503906 1319.132812 1215.804688 C 1311.5 1225.109375 1303.640625 1234.21875 1295.558594 1243.136719 C 1287.476562 1252.054688 1279.179688 1260.769531 1270.667969 1269.277344 C 1262.160156 1277.789062 1253.445312 1286.085938 1244.527344 1294.167969 C 1235.609375 1302.25 1226.5 1310.105469 1217.195312 1317.742188 C 1207.894531 1325.375 1198.410156 1332.777344 1188.742188 1339.949219 C 1179.074219 1347.117188 1169.238281 1354.046875 1159.234375 1360.730469 C 1149.226562 1367.417969 1139.0625 1373.855469 1128.738281 1380.042969 C 1118.417969 1386.230469 1107.949219 1392.160156 1097.332031 1397.832031 C 1086.71875 1403.503906 1075.972656 1408.914062 1065.09375 1414.058594 C 1054.214844 1419.207031 1043.214844 1424.082031 1032.097656 1428.6875 C 1020.976562 1433.292969 1009.753906 1437.621094 998.421875 1441.675781 C 987.089844 1445.730469 975.664062 1449.503906 964.148438 1453 C 952.632812 1456.492188 941.035156 1459.703125 929.363281 1462.625 C 917.6875 1465.550781 905.949219 1468.1875 894.144531 1470.535156 C 882.339844 1472.882812 870.488281 1474.9375 858.582031 1476.703125 C 846.679688 1478.472656 834.738281 1479.945312 822.761719 1481.125 C 810.785156 1482.304688 798.785156 1483.1875 786.765625 1483.777344 C 774.742188 1484.371094 762.714844 1484.664062 750.679688 1484.664062 C 738.644531 1484.664062 726.617188 1484.371094 714.597656 1483.777344 C 702.578125 1483.1875 690.578125 1482.304688 678.601562 1481.125 C 666.625 1479.945312 654.683594 1478.472656 642.777344 1476.707031 C 630.875 1474.9375 619.019531 1472.882812 607.214844 1470.535156 C 595.414062 1468.1875 583.671875 1465.550781 572 1462.625 C 560.324219 1459.703125 548.730469 1456.492188 537.210938 1453 C 525.695312 1449.503906 514.269531 1445.730469 502.941406 1441.675781 C 491.609375 1437.621094 480.382812 1433.292969 469.265625 1428.6875 C 458.144531 1424.082031 447.144531 1419.207031 436.265625 1414.058594 C 425.386719 1408.914062 414.640625 1403.503906 404.027344 1397.832031 C 393.414062 1392.160156 382.945312 1386.230469 372.621094 1380.042969 C 362.300781 1373.855469 352.132812 1367.417969 342.128906 1360.730469 C 332.121094 1354.042969 322.285156 1347.117188 312.617188 1339.949219 C 302.953125 1332.777344 293.46875 1325.375 284.164062 1317.742188 C 274.859375 1310.105469 265.75 1302.25 256.832031 1294.167969 C 247.917969 1286.085938 239.203125 1277.789062 230.691406 1269.277344 C 222.183594 1260.769531 213.886719 1252.054688 205.804688 1243.136719 C 197.722656 1234.21875 189.863281 1225.109375 182.226562 1215.804688 C 174.59375 1206.503906 167.191406 1197.019531 160.023438 1187.351562 C 152.851562 1177.683594 145.925781 1167.847656 139.238281 1157.84375 C 132.550781 1147.835938 126.117188 1137.671875 119.929688 1127.347656 C 113.742188 1117.023438 107.8125 1106.558594 102.136719 1095.941406 C 96.464844 1085.328125 91.054688 1074.582031 85.910156 1063.703125 C 80.765625 1052.824219 75.886719 1041.824219 71.28125 1030.707031 C 66.675781 1019.585938 62.347656 1008.359375 58.292969 997.03125 C 54.238281 985.699219 50.464844 974.273438 46.972656 962.757812 C 43.476562 951.242188 40.269531 939.644531 37.34375 927.972656 C 34.417969 916.296875 31.785156 904.558594 29.4375 892.753906 C 27.085938 880.949219 25.03125 869.097656 23.265625 857.191406 C 21.5 845.285156 20.027344 833.347656 18.847656 821.367188 C 17.667969 809.390625 16.78125 797.394531 16.191406 785.371094 C 15.601562 773.351562 15.304688 761.324219 15.304688 749.289062 C 15.304688 737.253906 15.601562 725.226562 16.191406 713.207031 C 16.78125 701.1875 17.667969 689.1875 18.847656 677.210938 C 20.027344 665.234375 21.5 653.292969 23.265625 641.386719 C 25.03125 629.484375 27.085938 617.628906 29.4375 605.824219 C 31.785156 594.019531 34.417969 582.28125 37.34375 570.609375 C 40.269531 558.933594 43.476562 547.339844 46.972656 535.820312 C 50.464844 524.304688 54.238281 512.878906 58.292969 501.550781 C 62.347656 490.21875 66.675781 478.992188 71.28125 467.875 C 75.886719 456.753906 80.765625 445.753906 85.910156 434.875 C 91.054688 423.996094 96.464844 413.25 102.136719 402.636719 C 107.8125 392.023438 113.742188 381.554688 119.929688 371.230469 C 126.117188 360.910156 132.550781 350.742188 139.238281 340.738281 C 145.925781 330.730469 152.851562 320.894531 160.023438 311.226562 C 167.191406 301.5625 174.59375 292.074219 182.226562 282.773438 C 189.863281 273.46875 197.722656 264.359375 205.804688 255.441406 C 213.886719 246.523438 222.183594 237.8125 230.691406 229.300781 C 239.203125 220.789062 247.917969 212.496094 256.832031 204.414062 C 265.75 196.332031 274.859375 188.472656 284.164062 180.835938 C 293.46875 173.203125 302.953125 165.800781 312.617188 158.628906 C 322.285156 151.460938 332.121094 144.535156 342.128906 137.847656 C 352.132812 131.160156 362.300781 124.722656 372.621094 118.539062 C 382.945312 112.351562 393.414062 106.421875 404.027344 100.746094 C 414.640625 95.074219 425.386719 89.664062 436.265625 84.519531 C 447.148438 79.371094 458.144531 74.496094 469.265625 69.890625 C 480.382812 65.285156 491.609375 60.957031 502.941406 56.902344 C 514.269531 52.847656 525.695312 49.074219 537.210938 45.578125 C 548.730469 42.085938 560.324219 38.878906 572 35.953125 C 583.671875 33.027344 595.414062 30.394531 607.214844 28.042969 C 619.019531 25.695312 630.875 23.640625 642.777344 21.875 C 654.683594 20.109375 666.625 18.636719 678.601562 17.457031 C 690.578125 16.277344 702.578125 15.390625 714.597656 14.800781 C 726.617188 14.210938 738.644531 13.914062 750.679688 13.914062 C 762.714844 13.914062 774.742188 14.210938 786.765625 14.800781 C 798.785156 15.390625 810.785156 16.277344 822.761719 17.457031 C 834.738281 18.636719 846.679688 20.109375 858.582031 21.875 C 870.488281 23.640625 882.339844 25.695312 894.144531 28.042969 C 905.949219 30.394531 917.6875 33.027344 929.363281 35.953125 C 941.035156 38.878906 952.632812 42.085938 964.148438 45.578125 C 975.664062 49.074219 987.089844 52.847656 998.421875 56.902344 C 1009.753906 60.957031 1020.976562 65.285156 1032.097656 69.890625 C 1043.214844 74.496094 1054.214844 79.371094 1065.09375 84.519531 C 1075.972656 89.664062 1086.71875 95.074219 1097.332031 100.746094 C 1107.949219 106.421875 1118.417969 112.351562 1128.738281 118.539062 C 1139.0625 124.722656 1149.226562 131.160156 1159.234375 137.847656 C 1169.238281 144.535156 1179.074219 151.460938 1188.742188 158.628906 C 1198.410156 165.800781 1207.894531 173.203125 1217.195312 180.835938 C 1226.5 188.472656 1235.609375 196.332031 1244.527344 204.414062 C 1253.445312 212.496094 1262.160156 220.789062 1270.667969 229.300781 C 1279.179688 237.8125 1287.476562 246.523438 1295.558594 255.441406 C 1303.640625 264.359375 1311.5 273.46875 1319.132812 282.773438 C 1326.769531 292.074219 1334.167969 301.5625 1341.339844 311.226562 C 1348.507812 320.894531 1355.4375 330.730469 1362.121094 340.738281 C 1368.808594 350.742188 1375.246094 360.910156 1381.433594 371.230469 C 1387.621094 381.554688 1393.550781 392.023438 1399.222656 402.636719 C 1404.898438 413.25 1410.304688 423.996094 1415.453125 434.875 C 1420.597656 445.753906 1425.472656 456.753906 1430.078125 467.875 C 1434.683594 478.992188 1439.015625 490.21875 1443.066406 501.550781 C 1447.121094 512.878906 1450.898438 524.304688 1454.390625 535.820312 C 1457.882812 547.339844 1461.09375 558.933594 1464.015625 570.609375 C 1466.941406 582.28125 1469.578125 594.019531 1471.925781 605.824219 C 1474.273438 617.628906 1476.332031 629.484375 1478.097656 641.386719 C 1479.863281 653.292969 1481.335938 665.234375 1482.515625 677.210938 C 1483.695312 689.1875 1484.578125 701.1875 1485.167969 713.207031 C 1485.761719 725.226562 1486.054688 737.253906 1486.054688 749.289062 Z M 1486.054688 749.289062 " fill-opacity="1" fill-rule="nonzero"/></g><path fill="#ffffff" d="M 834.246094 1194.070312 C 790.761719 1233.414062 745.140625 1270.097656 697.382812 1304.125 C 649.625 1338.152344 600.054688 1369.292969 548.667969 1397.542969 C 521.0625 1413.726562 492.503906 1428.71875 462.996094 1442.523438 C 456.371094 1439.777344 449.789062 1436.9375 443.25 1434.003906 C 436.707031 1431.070312 430.210938 1428.042969 423.757812 1424.921875 C 417.304688 1421.800781 410.894531 1418.589844 404.53125 1415.285156 C 398.171875 1411.980469 391.855469 1408.585938 385.59375 1405.101562 C 379.328125 1401.617188 373.113281 1398.042969 366.949219 1394.378906 C 360.789062 1390.71875 354.679688 1386.964844 348.625 1383.128906 C 342.570312 1379.289062 336.570312 1375.367188 330.628906 1371.355469 C 324.6875 1367.347656 318.804688 1363.25 312.976562 1359.074219 C 307.152344 1354.894531 301.386719 1350.632812 295.6875 1346.289062 C 289.984375 1341.945312 284.34375 1337.519531 278.765625 1333.015625 C 273.191406 1328.507812 267.679688 1323.925781 262.234375 1319.261719 C 256.792969 1314.597656 251.414062 1309.859375 246.105469 1305.039062 C 240.796875 1300.222656 235.558594 1295.328125 230.390625 1290.363281 C 225.21875 1285.394531 220.125 1280.355469 215.101562 1275.238281 C 210.074219 1270.125 205.125 1264.941406 200.25 1259.6875 C 195.375 1254.429688 190.574219 1249.105469 185.851562 1243.710938 C 181.128906 1238.320312 176.484375 1232.859375 171.917969 1227.332031 C 167.351562 1221.808594 162.867188 1216.214844 158.460938 1210.5625 C 154.054688 1204.90625 149.730469 1199.1875 145.488281 1193.410156 C 141.246094 1187.632812 137.085938 1181.792969 133.011719 1175.894531 C 128.9375 1169.996094 124.945312 1164.042969 121.042969 1158.027344 C 117.136719 1152.015625 113.320312 1145.949219 109.589844 1139.828125 C 105.859375 1133.707031 102.21875 1127.53125 98.664062 1121.304688 C 95.109375 1115.078125 91.648438 1108.804688 88.273438 1102.476562 C 84.898438 1096.152344 81.617188 1089.78125 78.425781 1083.359375 C 75.234375 1076.941406 72.136719 1070.476562 69.132812 1063.96875 C 66.125 1057.460938 63.214844 1050.910156 60.398438 1044.316406 C 57.578125 1037.726562 54.855469 1031.09375 52.226562 1024.425781 C 49.601562 1017.753906 47.070312 1011.050781 44.632812 1004.308594 C 42.195312 997.5625 39.859375 990.789062 37.617188 983.980469 C 35.375 977.167969 33.230469 970.328125 31.1875 963.457031 C 29.140625 956.585938 27.195312 949.6875 25.347656 942.761719 C 55.332031 961.324219 86.746094 979.171875 118.160156 995.59375 C 145.628906 1010.460938 173.496094 1024.542969 201.757812 1037.839844 C 230.023438 1051.132812 258.636719 1063.621094 287.605469 1075.300781 C 316.574219 1086.980469 345.851562 1097.835938 375.433594 1107.863281 C 405.011719 1117.890625 434.855469 1127.074219 464.953125 1135.417969 C 495.054688 1143.761719 525.363281 1151.246094 555.886719 1157.878906 C 586.410156 1164.511719 617.09375 1170.277344 647.941406 1175.175781 C 678.789062 1180.074219 709.753906 1184.101562 740.828125 1187.253906 C 771.902344 1190.402344 803.042969 1192.675781 834.246094 1194.070312 Z M 405.878906 1044.140625 C 391.582031 1016.617188 378.0625 988.71875 365.320312 960.441406 C 352.578125 932.164062 340.632812 903.550781 329.488281 874.609375 C 318.339844 845.664062 308.003906 816.433594 298.488281 786.917969 C 288.96875 757.398438 280.277344 727.636719 272.417969 697.632812 C 264.554688 667.628906 257.535156 637.433594 251.359375 607.039062 C 245.179688 576.644531 239.851562 546.101562 235.375 515.410156 C 230.902344 484.71875 227.28125 453.925781 224.519531 423.035156 C 221.761719 392.140625 219.863281 361.195312 218.824219 330.199219 C 218.824219 294.5 218.824219 258.804688 218.824219 223.820312 C 210.230469 232.445312 201.847656 241.277344 193.679688 250.3125 C 185.515625 259.347656 177.574219 268.574219 169.859375 277.996094 C 162.140625 287.417969 154.660156 297.023438 147.414062 306.808594 C 140.164062 316.597656 133.160156 326.554688 126.398438 336.683594 C 119.636719 346.8125 113.125 357.101562 106.867188 367.546875 C 100.605469 377.992188 94.605469 388.585938 88.863281 399.324219 C 83.117188 410.0625 77.640625 420.9375 72.429688 431.941406 C 67.214844 442.949219 62.273438 454.078125 57.605469 465.324219 C 52.933594 476.570312 48.542969 487.925781 44.425781 499.386719 C 40.308594 510.847656 36.476562 522.40625 32.921875 534.054688 C 29.371094 545.703125 26.105469 557.429688 23.125 569.238281 C 20.144531 581.046875 17.453125 592.921875 15.054688 604.859375 C 12.652344 616.800781 10.542969 628.789062 8.726562 640.832031 C 6.910156 652.875 5.390625 664.953125 4.164062 677.070312 C 2.9375 689.1875 2.007812 701.324219 1.371094 713.488281 C 0.738281 725.648438 0.398438 737.820312 0.359375 749.996094 C 0.320312 782.507812 2.460938 814.871094 6.785156 847.09375 C 33.4375 865.179688 60.570312 882.316406 88.175781 898.496094 C 138.285156 928.777344 189.964844 956.097656 243.207031 980.449219 C 296.453125 1004.804688 350.914062 1026.035156 406.59375 1044.140625 Z M 847.808594 78.890625 C 878.511719 60.328125 909.921875 41.765625 942.050781 25.34375 C 935.164062 23.519531 928.25 21.792969 921.3125 20.164062 C 914.375 18.535156 907.417969 17.007812 900.433594 15.578125 C 893.453125 14.148438 886.453125 12.820312 879.433594 11.589844 C 872.417969 10.363281 865.382812 9.234375 858.332031 8.203125 C 851.277344 7.175781 844.214844 6.25 837.136719 5.421875 C 830.058594 4.597656 822.972656 3.871094 815.871094 3.246094 C 808.773438 2.625 801.667969 2.101562 794.554688 1.679688 C 787.441406 1.261719 780.324219 0.941406 773.203125 0.722656 C 766.078125 0.503906 758.953125 0.390625 751.828125 0.375 C 744.703125 0.363281 737.578125 0.449219 730.457031 0.640625 C 723.332031 0.828125 716.214844 1.121094 709.097656 1.515625 C 701.984375 1.90625 694.875 2.402344 687.773438 2.996094 C 680.671875 3.59375 673.582031 4.292969 666.503906 5.089844 C 659.421875 5.886719 652.351562 6.789062 645.296875 7.789062 C 638.242188 8.789062 631.203125 9.890625 624.179688 11.09375 C 617.15625 12.292969 610.152344 13.597656 603.164062 14.996094 C 596.179688 16.398438 589.210938 17.902344 582.269531 19.503906 C 575.324219 21.101562 568.40625 22.804688 561.511719 24.601562 C 554.617188 26.398438 547.75 28.296875 540.90625 30.292969 C 534.066406 32.285156 527.253906 34.378906 520.472656 36.566406 C 513.691406 38.757812 506.945312 41.042969 500.230469 43.425781 C 493.511719 45.808594 486.832031 48.285156 480.1875 50.859375 C 473.542969 53.433594 466.9375 56.097656 460.367188 58.859375 C 453.796875 61.625 447.269531 64.476562 440.785156 67.425781 C 434.296875 70.375 427.851562 73.414062 421.453125 76.546875 C 415.050781 79.679688 408.699219 82.902344 402.390625 86.21875 C 396.082031 89.53125 389.820312 92.933594 383.609375 96.429688 C 377.398438 99.921875 371.238281 103.503906 365.132812 107.171875 C 359.023438 110.839844 352.96875 114.59375 346.964844 118.4375 C 340.964844 122.277344 335.019531 126.207031 329.128906 130.21875 C 323.242188 134.230469 317.410156 138.324219 311.636719 142.503906 C 305.867188 146.679688 300.15625 150.941406 294.503906 155.28125 C 294.503906 187.410156 290.21875 219.539062 289.507812 251.664062 C 288.699219 310.171875 291.101562 368.546875 296.710938 426.789062 C 302.320312 485.03125 311.105469 542.792969 323.0625 600.070312 C 339.71875 573.828125 357.089844 548.070312 375.183594 522.796875 C 393.277344 497.523438 412.0625 472.777344 431.539062 448.550781 C 451.011719 424.328125 471.148438 400.667969 491.945312 377.566406 C 512.742188 354.46875 534.167969 331.96875 556.21875 310.0625 C 578.273438 288.160156 600.921875 266.890625 624.160156 246.25 C 647.402344 225.613281 671.199219 205.640625 695.554688 186.328125 C 719.910156 167.019531 744.789062 148.40625 770.183594 130.484375 C 795.578125 112.5625 821.453125 95.367188 847.808594 78.890625 Z M 1381.125 500.117188 C 1412.539062 516.539062 1443.953125 534.386719 1473.9375 552.949219 C 1472.089844 546.023438 1470.144531 539.125 1468.097656 532.253906 C 1466.054688 525.382812 1463.910156 518.542969 1461.667969 511.730469 C 1459.425781 504.921875 1457.089844 498.148438 1454.652344 491.402344 C 1452.21875 484.660156 1449.6875 477.957031 1447.058594 471.285156 C 1444.429688 464.617188 1441.707031 457.984375 1438.890625 451.394531 C 1436.070312 444.800781 1433.160156 438.25 1430.152344 431.742188 C 1427.148438 425.234375 1424.050781 418.769531 1420.859375 412.351562 C 1417.667969 405.929688 1414.386719 399.558594 1411.011719 393.234375 C 1407.636719 386.90625 1404.175781 380.632812 1400.621094 374.40625 C 1397.066406 368.179688 1393.425781 362.003906 1389.695312 355.882812 C 1385.964844 349.761719 1382.148438 343.695312 1378.242188 337.683594 C 1374.339844 331.667969 1370.351562 325.714844 1366.273438 319.816406 C 1362.199219 313.917969 1358.042969 308.078125 1353.796875 302.300781 C 1349.554688 296.523438 1345.230469 290.804688 1340.824219 285.148438 C 1336.417969 279.496094 1331.933594 273.90625 1327.367188 268.378906 C 1322.800781 262.851562 1318.15625 257.390625 1313.433594 252 C 1308.710938 246.605469 1303.910156 241.28125 1299.035156 236.027344 C 1294.160156 230.769531 1289.210938 225.585938 1284.1875 220.472656 C 1279.160156 215.355469 1274.066406 210.316406 1268.898438 205.347656 C 1263.726562 200.382812 1258.488281 195.488281 1253.179688 190.671875 C 1247.871094 185.851562 1242.496094 181.113281 1237.050781 176.449219 C 1231.605469 171.785156 1226.09375 167.203125 1220.519531 162.695312 C 1214.941406 158.191406 1209.304688 153.765625 1203.601562 149.421875 C 1197.898438 145.078125 1192.132812 140.816406 1186.308594 136.636719 C 1180.484375 132.460938 1174.597656 128.363281 1168.65625 124.355469 C 1162.714844 120.34375 1156.714844 116.421875 1150.660156 112.582031 C 1144.605469 108.746094 1138.496094 104.992188 1132.335938 101.332031 C 1126.171875 97.667969 1119.957031 94.09375 1113.695312 90.609375 C 1107.429688 87.125 1101.117188 83.730469 1094.753906 80.425781 C 1088.390625 77.121094 1081.984375 73.910156 1075.527344 70.789062 C 1069.074219 67.667969 1062.578125 64.640625 1056.035156 61.707031 C 1049.496094 58.773438 1042.914062 55.933594 1036.292969 53.1875 C 1006.78125 66.992188 978.222656 81.984375 950.617188 98.167969 C 899.277344 126.488281 849.730469 157.664062 801.976562 191.6875 C 754.222656 225.710938 708.578125 262.363281 665.039062 301.640625 C 696.242188 303.035156 727.382812 305.308594 758.457031 308.460938 C 789.535156 311.609375 820.496094 315.636719 851.34375 320.535156 C 882.191406 325.433594 912.875 331.199219 943.398438 337.832031 C 973.921875 344.464844 1004.234375 351.949219 1034.332031 360.292969 C 1064.433594 368.636719 1094.273438 377.820312 1123.855469 387.847656 C 1153.433594 397.875 1182.710938 408.730469 1211.679688 420.410156 C 1240.648438 432.089844 1269.261719 444.578125 1297.527344 457.871094 C 1325.789062 471.167969 1353.65625 485.25 1381.125 500.117188 Z M 1280.460938 1279.03125 C 1289.113281 1270.367188 1297.550781 1261.5 1305.773438 1252.425781 C 1313.992188 1243.351562 1321.984375 1234.082031 1329.75 1224.617188 C 1337.515625 1215.148438 1345.042969 1205.496094 1352.335938 1195.660156 C 1359.628906 1185.828125 1366.675781 1175.816406 1373.476562 1165.636719 C 1380.277344 1155.453125 1386.824219 1145.113281 1393.117188 1134.609375 C 1399.414062 1124.109375 1405.445312 1113.457031 1411.21875 1102.660156 C 1416.988281 1091.859375 1422.492188 1080.925781 1427.726562 1069.859375 C 1432.960938 1058.789062 1437.921875 1047.601562 1442.609375 1036.289062 C 1447.296875 1024.976562 1451.703125 1013.558594 1455.828125 1002.03125 C 1459.957031 990.503906 1463.796875 978.878906 1467.351562 967.164062 C 1470.910156 955.449219 1474.175781 943.652344 1477.15625 931.777344 C 1480.132812 919.898438 1482.816406 907.957031 1485.210938 895.949219 C 1487.601562 883.941406 1489.699219 871.882812 1491.5 859.769531 C 1493.300781 847.660156 1494.800781 835.511719 1496.007812 823.328125 C 1497.210938 811.144531 1498.117188 798.9375 1498.722656 786.707031 C 1499.328125 774.476562 1499.632812 762.242188 1499.640625 749.996094 C 1499.679688 717.488281 1497.539062 685.121094 1493.214844 652.902344 C 1466.5625 635.289062 1439.429688 618.15625 1411.824219 601.496094 C 1361.648438 571.710938 1309.941406 544.878906 1256.695312 521.003906 C 1203.453125 497.128906 1149.023438 476.363281 1093.40625 458.707031 C 1107.703125 486.234375 1121.222656 514.132812 1133.964844 542.410156 C 1146.707031 570.6875 1158.652344 599.296875 1169.800781 628.242188 C 1180.945312 657.183594 1191.28125 686.414062 1200.800781 715.933594 C 1210.320312 745.453125 1219.007812 775.214844 1226.871094 805.21875 C 1234.730469 835.21875 1241.75 865.417969 1247.925781 895.8125 C 1254.105469 926.207031 1259.433594 956.75 1263.910156 987.441406 C 1268.386719 1018.132812 1272.003906 1048.921875 1274.765625 1079.816406 C 1277.523438 1110.707031 1279.421875 1141.652344 1280.460938 1172.652344 C 1285.457031 1208.347656 1285.457031 1244.046875 1280.460938 1279.03125 Z M 652.191406 1421.816406 C 621.488281 1440.378906 590.078125 1458.941406 557.949219 1475.363281 C 564.835938 1477.191406 571.75 1478.917969 578.6875 1480.542969 C 585.625 1482.171875 592.582031 1483.699219 599.566406 1485.128906 C 606.546875 1486.558594 613.546875 1487.890625 620.566406 1489.117188 C 627.582031 1490.347656 634.617188 1491.476562 641.667969 1492.503906 C 648.722656 1493.53125 655.785156 1494.460938 662.863281 1495.285156 C 669.941406 1496.113281 677.027344 1496.835938 684.128906 1497.460938 C 691.226562 1498.085938 698.332031 1498.605469 705.445312 1499.027344 C 712.558594 1499.449219 719.675781 1499.769531 726.796875 1499.984375 C 733.921875 1500.203125 741.046875 1500.320312 748.171875 1500.332031 C 755.296875 1500.347656 762.421875 1500.257812 769.542969 1500.070312 C 776.667969 1499.878906 783.785156 1499.589844 790.902344 1499.195312 C 798.015625 1498.800781 805.125 1498.308594 812.226562 1497.710938 C 819.324219 1497.117188 826.417969 1496.417969 833.496094 1495.617188 C 840.578125 1494.820312 847.648438 1493.921875 854.703125 1492.921875 C 861.757812 1491.917969 868.796875 1490.816406 875.820312 1489.617188 C 882.84375 1488.414062 889.847656 1487.113281 896.835938 1485.710938 C 903.820312 1484.308594 910.789062 1482.808594 917.730469 1481.207031 C 924.675781 1479.605469 931.59375 1477.90625 938.488281 1476.105469 C 945.382812 1474.308594 952.25 1472.410156 959.09375 1470.417969 C 965.933594 1468.421875 972.746094 1466.328125 979.527344 1464.140625 C 986.304688 1461.953125 993.054688 1459.664062 999.769531 1457.285156 C 1006.488281 1454.902344 1013.167969 1452.421875 1019.8125 1449.851562 C 1026.457031 1447.277344 1033.0625 1444.609375 1039.632812 1441.847656 C 1046.203125 1439.085938 1052.730469 1436.230469 1059.214844 1433.28125 C 1065.703125 1430.335938 1072.148438 1427.292969 1078.546875 1424.160156 C 1084.949219 1421.027344 1091.300781 1417.804688 1097.609375 1414.492188 C 1103.917969 1411.175781 1110.179688 1407.773438 1116.390625 1404.28125 C 1122.601562 1400.789062 1128.761719 1397.207031 1134.867188 1393.539062 C 1140.976562 1389.867188 1147.03125 1386.113281 1153.035156 1382.273438 C 1159.035156 1378.429688 1164.980469 1374.503906 1170.871094 1370.492188 C 1176.757812 1366.480469 1182.589844 1362.382812 1188.363281 1358.207031 C 1194.132812 1354.027344 1199.84375 1349.769531 1205.496094 1345.425781 C 1205.496094 1313.296875 1209.78125 1281.171875 1210.492188 1249.042969 C 1211.300781 1190.539062 1208.898438 1132.164062 1203.289062 1073.917969 C 1197.679688 1015.675781 1188.894531 957.917969 1176.9375 900.640625 C 1160.273438 926.851562 1142.890625 952.574219 1124.789062 977.816406 C 1106.6875 1003.058594 1087.894531 1027.773438 1068.414062 1051.964844 C 1048.933594 1076.15625 1028.796875 1099.789062 1007.996094 1122.855469 C 987.199219 1145.925781 965.773438 1168.394531 943.71875 1190.265625 C 921.667969 1212.140625 899.019531 1233.378906 875.78125 1253.988281 C 852.546875 1274.597656 828.75 1294.542969 804.398438 1313.824219 C 780.050781 1333.105469 755.179688 1351.695312 729.792969 1369.589844 C 704.402344 1387.480469 678.535156 1404.652344 652.191406 1421.105469 Z M 652.191406 1421.816406 " fill-opacity="1" fill-rule="nonzero"/><g clip-path="url(#293ca7bd06)"><path fill="#ffffff" d="M 960.496094 721.320312 Z M 960.496094 721.320312 L 750.066406 534.957031 L 539.507812 721.398438 L 539.507812 987.804688 C 539.507812 994.683594 545.066406 1000.203125 551.949219 1000.203125 L 683.535156 1000.203125 L 683.535156 883.394531 C 683.535156 876.515625 689.054688 870.957031 695.933594 870.957031 L 804.058594 870.957031 C 810.9375 870.957031 816.457031 876.515625 816.457031 883.394531 L 816.457031 1000.203125 L 948.085938 1000.203125 C 954.964844 1000.203125 960.484375 994.683594 960.484375 987.804688 L 960.484375 721.308594 Z M 539.507812 721.402344 Z M 539.507812 721.402344 " fill-opacity="1" fill-rule="nonzero"/></g><g clip-path="url(#99a41b0bd2)"><path fill="#ffffff" d="M 748.839844 432.96875 L 450.210938 697.382812 L 481.667969 732.871094 L 750.0625 495.210938 L 1018.394531 732.871094 L 1049.789062 697.382812 L 751.226562 432.96875 L 750.066406 434.3125 L 748.84375 432.96875 Z M 748.839844 432.96875 " fill-opacity="1" fill-rule="nonzero"/></g><path fill="#ffffff" d="M 539.507812 471.03125 L 615.210938 471.03125 L 614.550781 515.871094 L 539.507812 583.664062 Z M 539.507812 471.03125 " fill-opacity="1" fill-rule="nonzero"/></svg>